# xmcd
#
# Track frame offsets: 
#        150
#        15573
#        30534
#        47441
#        61953
#        79698
#        99109
#        115746
#        130138
#        146184
#
# Disc length: 2204 seconds
#
# Revision: 0
# Processed by: cddbd v1.5.2PL0 Copyright (c) Steve Scherf et al.
# Submitted via: ExactAudioCopy v1.1
#
DISCID=75089a0a
DTITLE=Clairy Browne - Pool
DYEAR=2016
DGENRE=
TTITLE0=Vanity Fair
TTITLE1=Love Song for the World
TTITLE2=Pool
TTITLE3=Califalling for You
TTITLE4=Still Goodbye
TTITLE5=F.U.B.
TTITLE6=Killem WithIt
TTITLE7=Birthday Suit
TTITLE8=With You
TTITLE9=Spiral
EXTD=
EXTT0=
EXTT1=
EXTT2=
EXTT3=
EXTT4=
EXTT5=
EXTT6=
EXTT7=
EXTT8=
EXTT9=
PLAYORDER=
